<?xml version="1.0" encoding="UTF-8"?>
<svg width="50px" height="82px" viewBox="0 0 50 82" version="1.1" xmlns="http://www.w3.org/2000/svg" xmlns:xlink="http://www.w3.org/1999/xlink" style="background: #FFFFFF;">
    <g stroke="none" stroke-width="1" fill="none" fill-rule="evenodd">
        <g transform="translate(25.000000, 41.000000) rotate(-180.000000) translate(-25.000000, -41.000000) translate(1.000000, 1.000000)" stroke="#000000" fill="#000000">
            <path d="M24.955612,79.9796 L25.90939,79.9175 L26.83038,79.8164 L27.74591,79.6741 L28.62967,79.4951 L29.50427,79.2757 L30.34782,79.0222 L31.1788,78.73 L31.9794,78.4065 L32.76433,78.0466 L33.5193,77.6579 L34.256,77.2355 L34.9634,76.787 L35.6506,76.308 L36.3094,75.8053 L36.9464,75.2754 L37.5556,74.7245 L38.1422,74.1494 L38.7022,73.5554 L39.239,72.9404 L39.7492,72.3098 L40.236,71.6611 L40.6996,70.9955 L41.1399,70.3142 L41.5548,69.6219 L41.9468,68.9164 L42.316,68.1987 L42.6626,67.4697 L42.9855,66.7332 L43.2862,65.9873 L43.5649,65.2329 L43.8217,64.4707 L44.0557,63.7052 L44.2682,62.9336 L44.4594,62.1563 L44.6292,61.3741 L44.7767,60.5938 L44.9033,59.8099 L45.0088,59.0228 L45.0932,58.2332 L45.1559,57.4483 L45.1976,56.662 L45.2197,55.3653 L45.1842,54.0689 L45.0696,52.5464 L44.8781,51.0316 L44.6175,49.55545 L44.2874,48.09319 L43.8978,46.67236 L43.4459,45.27007 L42.9435,43.91171 L42.3856,42.57515 L41.7863,41.28596 L41.1379,40.0207977 L40.4572,38.80684 L39.7325,37.61856 L38.9846,36.48552 L38.1973,35.37949 L37.3962,34.3329 L36.5595,33.31458 L35.9804,32.65027 L35.3856,32 L48,32 L48,29 L34.0878,29 L34.0878,0 L31.0878,0 L31.0878,14.5 L16.9122,14.5 L16.9122,0 L13.9122,0 L13.9122,29 L0,29 L0,32 L12.6144,32 L12.0196,32.65027 L11.4405,33.31458 L10.6038,34.3329 L9.8027,35.37949 L9.0154,36.48552 L8.2675,37.61858 L7.5428,38.80684 L6.8621,40.0207977 L6.2136,41.28596 L5.6144,42.57515 L5.0565,43.91171 L4.5541,45.27007 L4.1022,46.67236 L3.7125,48.09319 L3.3825,49.55545 L3.1219,51.0316 L2.9304,52.5464 L2.8158,54.0689 L2.7877,54.8437 L2.7801,55.619 L2.8024,56.662 L2.8441,57.4483 L2.9068,58.2332 L2.9912,59.0228 L3.0967,59.8099 L3.2233,60.5938 L3.3708,61.3741 L3.5406,62.1563 L3.7318,62.9336 L3.9443,63.7053 L4.1783,64.4707 L4.4351,65.2329 L4.7138,65.9873 L5.0145,66.7332 L5.3374,67.4697 L5.684,68.1987 L6.0532,68.9164 L6.4452,69.6219 L6.8601,70.3142 L7.3004,70.9955 L7.764,71.6611 L8.2508,72.3098 L8.761,72.9404 L9.2995,73.5573 L9.8614,74.1531 L10.4462,74.7263 L11.0536,75.2754 L11.6942,75.8081 L12.3568,76.3132 L13.0404,76.7895 L13.744,77.2355 L14.48068,77.6579 L15.23569,78.0466 L16.02061,78.4065 L16.82121,78.73 L17.65218,79.0222 L18.49574,79.2757 L19.37033,79.4951 L20.25409,79.674 L21.16962,79.8164 L22.09061,79.9175 L23.044388,79.9796 L24,80 L24.955612,79.9796 Z M22.89258,76.9683 L21.82027,76.8746 L20.78304,76.7211 L19.78084,76.5101 L18.81364,76.2436 L17.88141,75.9238 L16.9841,75.553 L16.12166,75.1334 L15.29407,74.667 L14.50128,74.1562 L13.7433,73.603 L13.02,73.0097 L12.3313,72.3784 L11.6774,71.7114 L11.058,71.0107 L10.4732,70.2787 L9.923,69.5174 L9.4072,68.7291 L8.9259,67.9159 L8.479,67.08 L8.0664,66.2237 L7.6882,65.349 L7.3443,64.4582 L7.0347,63.5535 L6.7592,62.6369 L6.5179,61.7109 L6.3108,60.7774 L6.1378,59.8387 L5.9988,58.8969 L5.8939,57.9544 L5.8229,57.0131 L5.7859,56.0754 L5.7826,55.1431 L5.8121,54.217 L5.8736,53.2977 L5.9658,52.3857 L6.0879,51.4816 L6.2388,50.5858 L6.4174,49.69902 L6.6228,48.82166 L6.8538,47.9543 L7.1096,47.09746 L7.389,46.25169 L7.6911,45.41756 L8.0148,44.59555 L8.3591,43.78622 L8.723,42.99013 L9.1054,42.20779 L9.5054,41.43976 L9.9218,40.686539 L10.3538,39.9487152 L10.8002,39.226791 L11.7322,37.83279 L12.7099,36.5089 L13.7249,35.25935 L14.76906,34.0885 L15.83423,33.00061 L16.9122,32 L16.9122,17.5 L31.0878,17.5 L31.0878,32 L32.16577,33.00061 L33.23094,34.0885 L34.2751,35.25935 L35.2901,36.5089 L36.2678,37.83279 L37.1998,39.226791 L37.6462,39.9487152 L38.0782,40.686539 L38.4946,41.43976 L38.8946,42.20779 L39.277,42.99013 L39.6409,43.78622 L39.9852,44.59555 L40.3089,45.41756 L40.611,46.25169 L40.8904,47.09746 L41.1462,47.9543 L41.3772,48.82166 L41.5826,49.69902 L41.7612,50.5858 L41.9121,51.4816 L42.0342,52.3857 L42.1264,53.2977 L42.1879,54.217 L42.2174,55.1431 L42.2141,56.0754 L42.1771,57.0131 L42.1061,57.9544 L42.0012,58.8969 L41.8622,59.8387 L41.6892,60.7774 L41.4821,61.7109 L41.2408,62.6369 L40.9653,63.5535 L40.6557,64.4582 L40.3118,65.349 L39.9336,66.2237 L39.521,67.08 L39.0741,67.9159 L38.5928,68.7291 L38.077,69.5174 L37.5268,70.2787 L36.942,71.0107 L36.3226,71.7114 L35.6687,72.3784 L34.98,73.0097 L34.2567,73.603 L33.49872,74.1562 L32.70593,74.667 L31.87834,75.1334 L31.0159,75.553 L30.11859,75.9238 L29.18636,76.2436 L28.21916,76.5101 L27.21696,76.7211 L26.17973,76.8746 L25.10742,76.9683 L24,77 L22.89258,76.9683 Z" id="Shape"></path>
        </g>
    </g>
</svg>